<svg width="500" height="500" viewBox="0 0 500 500" fill="none" xmlns="http://www.w3.org/2000/svg">
<rect width="500" height="500" rx="200" fill="#2F4249"/>
<path d="M162.727 325.124C162.73 325.8 162.59 326.468 162.318 327.086C162.047 327.705 161.647 328.261 161.147 328.718C160.646 329.175 160.056 329.523 159.412 329.741C158.768 329.959 158.086 330.04 157.409 329.982C136.97 328.617 117.816 319.6 103.817 304.751C89.8191 289.903 82.0212 270.332 82 249.995C82 248.887 82 247.778 82 246.695C82.51 233.881 86.6808 221.475 94.0255 210.925C101.37 200.375 111.586 192.118 123.48 187.115C135.632 181.791 149.058 180.012 162.191 181.984C175.323 183.957 187.618 189.6 197.639 198.255L309.636 294.371C318.266 301.808 328.847 306.654 340.146 308.346C351.446 310.038 362.996 308.505 373.452 303.927C383.698 299.723 392.503 292.672 398.809 283.62C405.115 274.567 408.655 263.9 409.002 252.899C409.002 251.949 409.002 250.972 409.002 249.995C408.981 232.118 402.121 214.916 389.809 201.87C377.498 188.824 360.655 180.907 342.687 179.723C341.441 179.649 340.27 179.105 339.415 178.202C338.56 177.298 338.085 176.105 338.087 174.866C338.086 174.203 338.221 173.547 338.485 172.938C338.75 172.328 339.136 171.78 339.622 171.325C340.107 170.869 340.682 170.518 341.31 170.291C341.938 170.065 342.605 169.969 343.272 170.009C363.768 171.296 383.001 180.28 397.066 195.136C411.131 209.993 418.974 229.607 419 249.995C419 251.104 419 252.213 419 253.295C418.489 266.106 414.321 278.509 406.981 289.057C399.642 299.607 389.434 307.867 377.546 312.876C365.391 318.202 351.96 319.982 338.823 318.01C325.685 316.037 313.385 310.392 303.361 301.736L191.364 205.619C182.737 198.181 172.154 193.331 160.855 191.639C149.555 189.947 138.003 191.481 127.548 196.063C117.293 200.26 108.477 207.308 102.16 216.36C95.844 225.413 92.2965 236.084 91.9446 247.092C91.9446 248.042 91.9446 249.018 91.9446 249.995C91.9657 267.873 98.826 285.074 111.138 298.121C123.449 311.167 140.292 319.083 158.26 320.267C159.506 320.341 160.677 320.886 161.532 321.789C162.387 322.692 162.862 323.885 162.859 325.124H162.727Z" fill="white"/>
<path d="M250.495 418H247.174C234.284 417.491 221.803 413.334 211.189 406.015C200.574 398.696 192.262 388.517 187.222 376.663C181.862 364.542 180.071 351.148 182.056 338.048C184.041 324.948 189.721 312.683 198.431 302.686L295.148 191.004C302.631 182.398 307.509 171.846 309.211 160.579C310.913 149.312 309.371 137.793 304.764 127.367C300.533 117.151 293.438 108.37 284.329 102.081C275.221 95.7927 264.486 92.2631 253.417 91.9166H250.495C232.527 91.9354 215.236 98.758 202.112 111.007C188.988 123.256 181.008 140.02 179.783 157.913C179.71 159.155 179.162 160.323 178.253 161.176C177.344 162.028 176.144 162.502 174.896 162.5C174.229 162.501 173.569 162.366 172.956 162.102C172.343 161.84 171.79 161.454 171.332 160.97C170.875 160.485 170.521 159.912 170.293 159.286C170.066 158.66 169.969 157.994 170.009 157.33C171.35 136.925 180.41 117.791 195.354 103.805C210.298 89.8178 230.009 82.0234 250.495 82H253.815C266.706 82.5095 279.186 86.6658 289.801 93.9846C300.416 101.303 308.728 111.483 313.769 123.337C319.128 135.458 320.92 148.852 318.935 161.952C316.95 175.052 311.27 187.317 302.559 197.314L205.843 308.996C198.359 317.602 193.482 328.154 191.779 339.421C190.076 350.689 191.619 362.207 196.227 372.633C200.456 382.849 207.552 391.63 216.661 397.918C225.77 404.207 236.503 407.737 247.573 408.084H250.495C268.484 408.063 285.793 401.222 298.921 388.944C312.048 376.668 320.014 359.871 321.206 341.954C321.281 340.712 321.828 339.545 322.737 338.692C323.645 337.839 324.847 337.365 326.094 337.367C326.773 337.365 327.446 337.503 328.068 337.775C328.69 338.046 329.249 338.444 329.709 338.943C330.17 339.442 330.52 340.031 330.739 340.673C330.958 341.315 331.04 341.995 330.982 342.67C329.641 363.075 320.581 382.209 305.636 396.196C290.692 410.182 270.981 417.977 250.495 418Z" fill="white"/>
</svg>