<svg width="2071" height="466" viewBox="0 0 2071 466" fill="none" xmlns="http://www.w3.org/2000/svg">
<g clip-path="url(#clip0_3599_143)">
<path d="M684.539 198.54H630.647V258.187H614.454V91.7842H684.539C704.433 91.7842 719.015 95.9519 728.286 104.288C737.556 112.623 742.205 125.42 742.23 142.68C742.23 160.404 737.508 174.146 728.065 183.903C718.621 193.661 704.113 198.54 684.539 198.54ZM630.647 186.625H684.539C711.883 186.625 725.556 171.977 725.556 142.68C725.556 129.049 722.42 119.145 716.151 112.967C709.842 106.789 699.33 103.699 684.539 103.699H630.647V186.625Z" fill="#2F4249"/>
<path d="M799.702 91.7842H832.679L890.406 258.187H874.176L857.024 209.462H774.914L757.983 258.187H741.753L799.702 91.7842ZM852.634 197.583L820.69 103.699H811.174L779.194 197.583H852.634Z" fill="#2F4249"/>
<path d="M1033.38 91.7842H1049.34V258.187H1021.68L936.845 107.414H932.788V258.187H916.595V91.7842H944.481L1029.32 243.22H1033.38V91.7842Z" fill="#2F4249"/>
<path d="M1157.27 89.9209C1180.96 89.9209 1198.75 96.4177 1210.65 109.411C1222.55 122.405 1228.52 143.317 1228.54 172.148C1228.77 185.405 1227.73 198.655 1225.44 211.716C1223.65 221.374 1219.88 230.562 1214.37 238.708C1209.05 246.396 1201.4 252.183 1192.54 255.22C1181.13 258.955 1169.16 260.685 1157.16 260.331C1145.03 260.667 1132.93 259.142 1121.27 255.808C1112.39 253.09 1104.58 247.647 1098.96 240.253C1093.08 232.175 1089.14 222.868 1087.41 213.04C1085.04 199.382 1083.96 185.529 1084.2 171.669C1084.2 141.882 1089.88 120.811 1101.24 108.455C1112.6 96.0989 1131.28 89.9209 1157.27 89.9209ZM1157.27 248.454C1165.34 248.636 1173.38 247.556 1181.1 245.254C1186.98 243.472 1192.43 240.478 1197.08 236.465C1201.53 232.198 1204.81 226.871 1206.63 220.983C1208.86 214.133 1210.36 207.072 1211.13 199.912C1212.07 190.712 1212.5 181.468 1212.43 172.221C1212.43 147.509 1207.65 129.562 1198.11 118.384C1188.57 107.204 1174.96 101.59 1157.27 101.541C1145.86 100.991 1134.48 103.159 1124.08 107.867C1115.62 112.576 1109.21 120.239 1106.08 129.379C1102.11 139.504 1100.14 153.601 1100.14 171.669C1100.05 181.432 1100.52 191.194 1101.54 200.904C1102.37 208.245 1104.05 215.465 1106.56 222.418C1108.54 228.228 1112.04 233.407 1116.7 237.421C1121.51 241.235 1127.06 244.014 1133 245.585C1140.92 247.662 1149.09 248.629 1157.27 248.454Z" fill="#2F4249"/>
<path d="M1368.38 91.7842H1384.57L1332.38 258.187H1296.6L1242.96 91.7842H1259.16L1309 246.235H1319.58L1368.38 91.7842Z" fill="#2F4249"/>
<path d="M1434.63 91.7842H1467.57L1525.26 258.187H1509.03L1491.88 209.462H1409.84L1392.91 258.187H1376.72L1434.63 91.7842ZM1487.6 197.583L1455.62 103.699H1446.11L1414.16 197.583H1487.6Z" fill="#2F4249"/>
<path d="M1659.71 258.187H1554.11V91.7842H1570.41V246.235H1659.82L1659.71 258.187Z" fill="#2F4249"/>
<path d="M1688.45 258.187V91.7842H1704.68V258.187H1688.45Z" fill="#2F4249"/>
<path d="M1755.58 258.187V91.7842H1865.98V103.699H1771.77V173.092H1850.23V184.97H1771.77V258.187H1755.58Z" fill="#2F4249"/>
<path d="M1905.08 258.187V91.7842H2019.06V103.699H1921.28V166.803H2003.31V178.718H1921.28V246.456H2019.06V258.334L1905.08 258.187Z" fill="#2F4249"/>
<path d="M619.326 333.534V351.921H643.376V356.149H619.326V375.86H614.383V329.305H646.29V333.534H619.326Z" fill="#2F4249"/>
<path d="M683.102 329.305H688.007V375.713H683.102V329.305Z" fill="#2F4249"/>
<path d="M738.799 333.534H722.458V329.305H760.083V333.534H743.742V375.713H738.799V333.534Z" fill="#2F4249"/>
<path d="M833.416 329.305V375.713H829.395L799.48 338.057V375.713H794.574V329.305H798.631L828.62 366.962V329.305H833.416Z" fill="#2F4249"/>
<path d="M908.113 371.448V375.713H875.21V329.305H907.117V333.534H880.116V350.046H904.203V354.348H880.116V371.558L908.113 371.448Z" fill="#2F4249"/>
<path d="M941.824 370.052L943.779 366.374C948.023 370.073 953.488 372.077 959.124 372.001C967.83 372.001 971.629 368.323 971.629 363.763C971.629 351.039 942.967 358.872 942.967 341.698C942.967 334.858 948.28 328.974 960.12 328.974C965.227 328.927 970.236 330.358 974.543 333.094L972.883 336.992C969.061 334.592 964.637 333.317 960.12 333.314C951.599 333.314 947.837 336.992 947.837 341.735C947.837 354.459 976.498 346.773 976.498 363.8C976.498 370.64 971.039 376.45 959.124 376.45C952.754 376.575 946.572 374.289 941.824 370.052Z" fill="#2F4249"/>
<path d="M1009.33 370.052L1011.29 366.374C1015.53 370.073 1020.99 372.077 1026.63 372.001C1035.33 372.001 1039.13 368.323 1039.13 363.763C1039.13 351.039 1010.47 358.872 1010.47 341.698C1010.47 334.858 1015.78 328.974 1027.63 328.974C1032.73 328.927 1037.74 330.358 1042.04 333.094L1040.39 336.992C1036.57 334.592 1032.14 333.317 1027.63 333.314C1019.1 333.314 1015.34 336.992 1015.34 341.735C1015.34 354.459 1043.97 346.773 1043.97 363.8C1043.97 370.64 1038.54 376.45 1026.63 376.45C1020.26 376.575 1014.08 374.289 1009.33 370.052Z" fill="#2F4249"/>
<path d="M1117.74 356.013H1150.94V359.392H1117.74V356.013Z" fill="#2F4249"/>
<path d="M1225.08 352.512C1225.03 349.338 1225.63 346.189 1226.85 343.257C1228.07 340.325 1229.87 337.671 1232.15 335.46C1234.44 333.249 1237.15 331.527 1240.13 330.399C1243.11 329.271 1246.28 328.763 1249.47 328.903C1252.61 328.776 1255.77 329.314 1258.7 330.48C1261.64 331.646 1264.29 333.414 1266.5 335.669L1263.36 338.795C1261.58 336.977 1259.44 335.548 1257.07 334.598C1254.69 333.649 1252.16 333.199 1249.61 333.279C1247 333.166 1244.41 333.578 1241.97 334.493C1239.53 335.408 1237.31 336.804 1235.42 338.6C1233.54 340.395 1232.05 342.552 1231.02 344.939C1230 347.327 1229.47 349.898 1229.47 352.494C1229.47 355.09 1230 357.66 1231.02 360.047C1232.05 362.435 1233.54 364.592 1235.42 366.388C1237.31 368.182 1239.53 369.579 1241.97 370.494C1244.41 371.408 1247 371.821 1249.61 371.708C1252.16 371.783 1254.7 371.328 1257.08 370.373C1259.44 369.417 1261.58 367.98 1263.36 366.156L1266.5 369.281C1264.28 371.542 1261.61 373.316 1258.67 374.487C1255.72 375.658 1252.56 376.203 1249.38 376.084C1246.21 376.219 1243.05 375.708 1240.08 374.58C1237.11 373.452 1234.41 371.731 1232.13 369.525C1229.85 367.317 1228.06 364.67 1226.84 361.744C1225.63 358.819 1225.03 355.677 1225.08 352.512Z" fill="#2F4249"/>
<path d="M1303.61 329.305H1308.51V371.448H1334.59V375.713H1303.61V329.305Z" fill="#2F4249"/>
<path d="M1368.12 355.893V329.305H1373.03V355.672C1373.03 366.704 1378.23 371.705 1387.27 371.705C1396.31 371.705 1401.54 366.668 1401.54 355.672V329.305H1406.34V355.893C1406.34 369.205 1399.15 376.081 1387.27 376.081C1375.39 376.081 1368.12 369.058 1368.12 355.893Z" fill="#2F4249"/>
<path d="M1486.68 363.321C1486.68 371.191 1480.81 375.713 1469.19 375.713H1447.75V329.305H1467.86C1478.23 329.305 1484.2 333.681 1484.2 341.22C1484.3 343.505 1483.65 345.762 1482.38 347.66C1481.1 349.559 1479.24 351 1477.08 351.774C1479.84 352.14 1482.37 353.533 1484.15 355.674C1485.92 357.815 1486.83 360.545 1486.68 363.321ZM1452.7 333.35V350.193H1467.46C1474.83 350.193 1479.22 347.324 1479.22 341.772C1479.22 336.218 1474.9 333.35 1467.46 333.35H1452.7ZM1481.73 362.769C1481.73 356.739 1477.31 354.091 1469.12 354.091H1452.7V371.521H1469.12C1477.31 371.668 1481.88 369.058 1481.88 362.917L1481.73 362.769Z" fill="#2F4249"/>
<path d="M2064.47 102.264C2064.47 98.9178 2061.96 96.7849 2058.09 96.7849H2051.85V113.075H2054.25V107.964H2058.82L2062.29 113.26H2064.94L2061.26 107.412C2062.28 107.012 2063.14 106.296 2063.72 105.369C2064.3 104.441 2064.56 103.352 2064.47 102.264ZM2062.11 102.264C2062.11 104.396 2060.63 105.574 2057.97 105.574H2054.29V98.9914H2057.97C2060.59 98.9914 2062.11 100.168 2062.11 102.264Z" fill="#2F4249"/>
<path d="M2057.31 91.2347C2054.6 91.2274 2051.94 92.0254 2049.67 93.5274C2047.41 95.0295 2045.64 97.1678 2044.6 99.6711C2043.56 102.174 2043.29 104.93 2043.82 107.588C2044.35 110.246 2045.66 112.687 2047.59 114.601C2049.51 116.514 2051.97 117.815 2054.63 118.338C2057.3 118.86 2060.06 118.581 2062.57 117.536C2065.08 116.49 2067.22 114.725 2068.72 112.464C2070.22 110.205 2071.01 107.552 2071 104.841C2071.04 103.04 2070.71 101.25 2070.04 99.578C2069.36 97.9065 2068.36 96.3888 2067.08 95.1168C2065.8 93.8447 2064.27 92.8448 2062.59 92.1774C2060.91 91.5101 2059.12 91.1894 2057.31 91.2347ZM2068.93 104.841C2068.94 107.143 2068.27 109.394 2066.98 111.311C2065.71 113.228 2063.89 114.723 2061.75 115.606C2059.62 116.491 2057.28 116.724 2055.01 116.277C2052.74 115.83 2050.66 114.722 2049.04 113.095C2047.4 111.467 2046.29 109.393 2045.85 107.135C2045.39 104.878 2045.63 102.539 2046.51 100.414C2047.4 98.2889 2048.9 96.4744 2050.83 95.2002C2052.74 93.9262 2055 93.25 2057.31 93.2572C2058.85 93.2068 2060.4 93.4711 2061.84 94.0339C2063.27 94.5968 2064.58 95.4464 2065.68 96.5307C2066.77 97.615 2067.64 98.9112 2068.22 100.34C2068.8 101.769 2069.08 103.301 2069.04 104.841H2068.93Z" fill="#2F4249"/>
<path d="M111.987 337.657C111.991 338.599 111.798 339.529 111.421 340.39C111.044 341.253 110.49 342.026 109.796 342.663C109.101 343.3 108.282 343.785 107.39 344.088C106.496 344.392 105.55 344.505 104.61 344.424C76.2569 342.523 49.6851 329.961 30.266 309.277C10.847 288.593 0.0294237 261.33 0 232.999C0 231.455 0 229.91 0 228.402C0.707532 210.551 6.49346 193.269 16.6823 178.572C26.8713 163.876 41.0429 152.373 57.543 145.403C74.3998 137.987 93.0259 135.509 111.244 138.256C129.461 141.004 146.518 148.866 160.42 160.922L315.786 294.816C327.758 305.176 342.437 311.928 358.111 314.285C373.787 316.642 389.81 314.506 404.314 308.128C418.527 302.272 430.742 292.449 439.49 279.839C448.239 267.229 453.149 252.369 453.631 237.044C453.631 235.72 453.631 234.36 453.631 232.999C453.602 208.095 444.085 184.132 427.006 165.958C409.926 147.784 386.561 136.756 361.636 135.107C359.907 135.003 358.283 134.245 357.097 132.987C355.911 131.729 355.251 130.067 355.254 128.34C355.253 127.417 355.441 126.502 355.807 125.654C356.174 124.805 356.71 124.041 357.384 123.407C358.057 122.772 358.855 122.283 359.725 121.968C360.596 121.653 361.522 121.518 362.448 121.574C390.88 123.368 417.561 135.882 437.073 156.578C456.584 177.274 467.464 204.597 467.5 232.999C467.5 234.544 467.5 236.088 467.5 237.596C466.792 255.441 461.01 272.72 450.828 287.414C440.647 302.11 426.485 313.617 409.994 320.594C393.132 328.014 374.499 330.494 356.275 327.746C338.05 324.999 320.987 317.135 307.081 305.076L151.714 171.181C139.746 160.819 125.066 154.064 109.39 151.706C93.7144 149.349 77.6894 151.486 63.1867 157.869C48.9597 163.715 36.7295 173.533 27.9672 186.144C19.205 198.755 14.2838 213.621 13.7956 228.954C13.7956 230.277 13.7956 231.638 13.7956 232.999C13.8249 257.903 23.3417 281.866 40.4207 300.04C57.4997 318.214 80.8655 329.241 105.791 330.891C107.519 330.995 109.144 331.753 110.329 333.011C111.516 334.269 112.175 335.931 112.172 337.657H111.987Z" fill="#2F4249"/>
<path d="M233.713 466H229.101C211.202 465.294 193.871 459.529 179.131 449.378C164.391 439.228 152.848 425.11 145.849 408.67C138.407 391.858 135.919 373.283 138.675 355.114C141.432 336.946 149.319 319.935 161.415 306.07L295.719 151.178C306.111 139.243 312.884 124.608 315.248 108.982C317.612 93.3547 315.47 77.3796 309.072 62.9203C303.198 48.7504 293.345 36.5729 280.696 27.8511C268.048 19.1292 253.142 14.2339 237.771 13.7534H233.713C208.762 13.7794 184.751 23.2417 166.526 40.2301C148.301 57.2185 137.221 80.4675 135.52 105.284C135.418 107.007 134.657 108.627 133.395 109.809C132.133 110.992 130.466 111.648 128.734 111.645C127.807 111.647 126.89 111.46 126.039 111.094C125.188 110.73 124.421 110.194 123.785 109.523C123.149 108.851 122.658 108.057 122.341 107.188C122.026 106.32 121.891 105.397 121.947 104.475C123.809 76.1753 136.39 49.639 157.141 30.2408C177.894 10.8426 205.265 0.0324635 233.713 0H238.324C256.224 0.706579 273.554 6.47099 288.295 16.6215C303.035 26.7719 314.577 40.8904 321.577 57.3306C329.019 74.1415 331.507 92.717 328.751 110.885C325.994 129.054 318.107 146.065 306.01 159.93L171.707 314.822C161.315 326.757 154.542 341.392 152.177 357.018C149.813 372.646 151.956 388.62 158.354 403.08C164.227 417.249 174.081 429.427 186.73 438.149C199.379 446.87 214.283 451.766 229.655 452.247H233.713C258.693 452.218 282.729 442.73 300.959 425.702C319.188 408.676 330.249 385.381 331.905 360.532C332.008 358.809 332.768 357.19 334.031 356.007C335.292 354.824 336.96 354.167 338.692 354.17C339.635 354.167 340.569 354.359 341.434 354.736C342.297 355.112 343.074 355.664 343.713 356.355C344.352 357.047 344.838 357.864 345.143 358.755C345.446 359.645 345.561 360.589 345.479 361.525C343.617 389.825 331.036 416.361 310.284 435.76C289.531 455.158 262.16 465.968 233.713 466Z" fill="#2F4249"/>
</g>
<defs>
<clipPath id="clip0_3599_143">
<rect width="2071" height="466" fill="white"/>
</clipPath>
</defs>
</svg>