<svg width="2292" height="592" viewBox="0 0 2292 592" fill="none" xmlns="http://www.w3.org/2000/svg">
<path d="M49.8388 0C53.9685 2.75322 58.0023 7.52789 61.5974 11.0401C72.3976 21.6819 83.1014 32.4274 93.6959 43.2761L129.307 79.1294C137.19 87.0361 145.346 94.7588 152.626 103.232C162.159 94.4548 173.233 86.6782 183.403 78.595C207.05 59.7628 230.924 41.2015 254.995 22.9159C234.512 59.7075 211.946 95.3708 190.669 131.72L266.932 208.623C295.36 237.13 324.136 265.409 351.404 295.036C367.251 312.603 382.907 330.348 398.357 348.265C445.241 401.754 491.497 455.788 537.113 510.355C540.674 514.487 544.18 518.631 547.55 522.92C539.373 535.875 530.196 548.269 521.252 560.703C513.691 571.217 506.336 581.972 498.138 592C475.354 570.979 454.329 547.259 432.922 524.821L300.905 385.135C223.685 304.592 148.164 222.425 74.4014 138.701L26.4693 85.1752C17.5051 75.107 8.23222 65.1184 0 54.4375C6.23199 46.2417 13.9228 38.7192 20.8805 31.1144C30.4203 20.685 39.7787 9.93474 49.8388 0Z" fill="#3337AD"/>
<path d="M752.186 155.492L742.818 127.236H869.813V161.02H828.352V266.211H789.348V161.02H759.557C757.612 161.02 755.974 160.354 754.643 159.024C753.415 157.693 752.595 156.515 752.186 155.492ZM935.075 266.209H919.872V158.255C916.699 153.239 913.781 148.223 911.12 143.206C908.458 138.292 906.206 132.969 904.363 127.236H958.723V216.15L1006.79 145.359C1009.96 140.036 1013.49 136.095 1017.38 133.535C1021.17 131.079 1025.32 129.441 1029.82 128.622C1034.33 127.7 1039.19 127.24 1044.41 127.24H1059.76V266.211H1020.91V177.297L972.696 248.398C969.011 253.823 965.069 257.816 960.872 260.375C956.777 262.832 952.58 264.419 948.281 265.136C943.981 265.852 939.579 266.209 935.075 266.209ZM1106.3 127.238H1255.25V266.209H1216.4V158.255H1160.2V266.209H1121.19V158.255C1118.74 152.932 1116.02 147.915 1113.06 143.206C1110.19 138.394 1107.94 133.073 1106.3 127.238ZM1317.44 127.238H1418.33L1452.42 266.209H1412.8L1402.67 226.744H1401.9C1400.57 230.43 1398.73 233.603 1396.37 236.265C1394.02 238.927 1390.74 240.258 1386.55 240.258H1349.38L1342.47 266.209H1304.54L1332.19 158.255C1327.89 153.034 1324.81 148.017 1322.97 143.206C1321.03 138.292 1319.18 132.971 1317.44 127.238ZM1370.27 156.261L1354.91 215.381H1400.06L1384.7 156.261H1370.27Z" fill="#000402"/>
<path d="M755.691 325.811H856.582L890.672 464.783H851.054L840.919 425.317H839.998C838.667 429.003 836.875 432.176 834.623 434.838C832.269 437.5 828.993 438.831 824.796 438.831H787.634L780.724 464.782H742.795L770.436 356.828C766.136 351.607 763.014 346.591 761.068 341.779C759.226 336.865 757.432 331.544 755.691 325.811ZM808.516 354.834L793.16 413.954H838.307L822.951 354.834H808.516ZM1019.2 390.153V356.83H979.122V464.785H940.425V356.83C937.047 352.326 934.18 347.463 931.825 342.242C929.471 337.021 927.27 331.545 925.222 325.812H1056.67V362.973C1056.67 366.761 1056.11 370.446 1054.98 374.029C1054.06 376.077 1052.22 377.868 1049.45 379.404C1046.79 381.042 1043.62 382.475 1039.93 383.704C1036.35 384.932 1032.67 386.109 1028.88 387.236C1025.19 388.259 1021.97 389.231 1019.2 390.153ZM1227.12 464.785H1108.27V356.83C1105.2 352.223 1102.43 347.258 1099.98 341.935C1097.62 336.612 1095.42 331.237 1093.37 325.811H1227.12L1221.44 343.624C1219.91 347.514 1218.06 350.636 1215.91 352.991C1213.76 355.448 1210.33 356.677 1205.62 356.677H1147.12V380.786H1209.92C1209.51 383.038 1208.9 385.751 1208.08 388.924C1207.26 391.995 1206.19 395.067 1204.86 398.138C1203.53 401.209 1201.94 403.768 1200.1 405.816C1198.25 407.864 1196 408.887 1193.34 408.887H1158.17C1155.72 408.887 1153.82 408.119 1152.49 406.584C1151.16 405.048 1150.19 403.308 1149.57 401.363C1148.96 399.418 1148.4 397.882 1147.89 396.756H1147.12V434.071H1209C1211.66 434.071 1213.92 435.146 1215.76 437.296C1217.6 439.343 1219.19 442.005 1220.52 445.281C1221.75 448.557 1222.87 451.935 1223.9 455.416C1225.02 458.896 1226.1 462.021 1227.12 464.785ZM1371.32 379.099V325.814H1410.32V464.786H1371.32V409.965H1325.86C1324.02 409.965 1322.18 409.146 1320.34 407.508C1318.49 405.768 1317.21 403.618 1316.5 401.059H1315.12V464.786H1276.42V356.831C1273.35 352.327 1270.63 347.464 1268.28 342.243C1265.93 337.023 1263.72 331.546 1261.68 325.813H1315.12V379.098L1371.32 379.099ZM1463.91 354.069L1454.55 325.814H1581.39V359.597H1539.92V464.788H1501.07V359.597H1471.28C1469.24 359.597 1467.6 358.932 1466.37 357.601C1465.14 356.27 1464.32 355.093 1463.91 354.069ZM1743.08 380.174L1713.29 390.156V356.372H1674.75C1672.7 356.372 1671.01 357.089 1669.68 358.522C1668.35 359.853 1667.68 361.542 1667.68 363.589V426.549C1667.68 428.494 1668.45 430.183 1669.99 431.616C1671.52 433.152 1673.26 433.92 1675.21 433.92H1751.84C1750.91 436.786 1749.94 439.96 1748.92 443.44C1748 447.024 1746.77 450.402 1745.23 453.575C1743.8 456.851 1741.96 459.564 1739.7 461.714C1737.45 463.761 1734.64 464.785 1731.26 464.785H1649.26C1643.53 464.785 1638.66 462.84 1634.67 458.95C1630.68 454.957 1628.68 450.095 1628.68 444.362V346.234C1628.68 340.604 1630.68 335.792 1634.67 331.8C1638.66 327.807 1643.53 325.811 1649.26 325.811H1750.92V367.886C1750.92 370.445 1750.15 372.851 1748.62 375.103C1747.18 377.458 1745.33 379.15 1743.08 380.174ZM1803.43 354.069L1794.22 325.814H1921.06V359.597H1879.6V464.788H1840.59V359.597H1810.8C1808.86 359.597 1807.27 358.932 1806.04 357.601C1804.71 356.27 1803.84 355.093 1803.43 354.069ZM2079.23 464.787H1970.5V356.832C1970.5 356.832 1969.89 355.757 1968.66 353.608C1967.43 351.458 1965.95 348.796 1964.21 345.623C1962.47 342.347 1960.78 338.917 1959.14 335.334C1957.6 331.751 1956.43 328.577 1955.61 325.813H2084.29C2086.34 325.813 2088.29 326.53 2090.13 327.963C2092.07 329.294 2093.56 330.983 2094.58 333.031C2095.71 334.976 2096.07 336.869 2095.66 338.712L2087.83 375.26C2087.31 378.228 2085.93 380.839 2083.68 383.092C2081.32 385.344 2078.41 386.982 2074.93 388.005H2095.04C2096.99 388.005 2098.88 388.671 2100.72 390.002C2102.67 391.435 2104.21 393.124 2105.33 395.069C2106.46 397.117 2106.82 399.062 2106.41 400.905L2097.96 449.276C2097.55 451.938 2096.37 454.497 2094.43 456.954C2092.48 459.309 2090.13 461.203 2087.37 462.636C2084.7 464.069 2081.99 464.787 2079.23 464.787ZM2064.48 408.891H2025.33C2023.07 408.891 2020.77 408.532 2018.42 407.816C2016.16 407.201 2014.47 406.024 2013.35 404.284L2009.2 397.067V435.764H2059.42C2059.72 435.764 2060.08 435.712 2060.49 435.61C2060.9 435.405 2061.16 434.842 2061.26 433.921L2065.71 410.58C2065.71 410.375 2065.56 410.016 2065.25 409.505C2064.94 409.095 2064.69 408.891 2064.48 408.891ZM2051.28 355.606H2009.2V380.482H2045.44C2045.95 380.482 2046.36 380.226 2046.67 379.714C2046.98 379.305 2047.23 378.896 2047.44 378.486L2052.51 357.601C2052.51 357.192 2052.4 356.783 2052.2 356.373C2051.99 355.861 2051.69 355.606 2051.28 355.606ZM2157.85 442.828V347.929C2157.85 341.582 2159.54 336.821 2162.92 333.647C2166.3 330.474 2170.54 328.375 2175.66 327.351C2180.88 326.328 2186.21 325.816 2191.63 325.816H2269.64C2273.74 325.816 2277.42 326.84 2280.7 328.887C2284.08 330.832 2286.74 333.443 2288.68 336.719C2290.63 340.097 2291.6 343.834 2291.6 347.929V442.828C2291.6 449.175 2289.91 453.884 2286.53 456.956C2283.15 460.129 2278.91 462.228 2273.79 463.252C2268.67 464.275 2263.4 464.787 2257.97 464.787H2179.81C2175.92 464.787 2172.28 463.815 2168.9 461.869C2165.53 459.924 2162.81 457.263 2160.77 453.885C2158.82 450.506 2157.85 446.821 2157.85 442.828ZM2196.55 363.748V426.861C2196.55 428.703 2197.26 430.393 2198.7 431.928C2200.03 433.361 2201.67 434.078 2203.61 434.078H2245.84C2247.78 434.078 2249.42 433.361 2250.75 431.928C2252.08 430.393 2252.75 428.703 2252.75 426.861V363.748C2252.75 361.905 2252.08 360.267 2250.75 358.834C2249.42 357.503 2247.78 356.837 2245.84 356.837H2203.61C2201.67 356.837 2200.03 357.503 2198.7 358.834C2197.26 360.267 2196.55 361.905 2196.55 363.748Z" fill="#000402"/>
</svg>
